<svg xmlns="http://www.w3.org/2000/svg" version="1.1" xmlns:xlink="http://www.w3.org/1999/xlink" xmlns:svgjs="http://svgjs.dev/svgjs" width="1500" height="526" viewBox="0 0 1500 526"><g transform="matrix(1,0,0,1,-0.9084522071641459,-0.09611568857326347)"><svg viewBox="0 0 396 139" data-background-color="#ffffff" preserveAspectRatio="xMidYMid meet" height="526" width="1500" xmlns="http://www.w3.org/2000/svg" xmlns:xlink="http://www.w3.org/1999/xlink"><g id="tight-bounds" transform="matrix(1,0,0,1,0.24008861730862918,0.025399392987992542)"><svg viewBox="0 0 395.52 138.94920121402404" height="138.94920121402404" width="395.52"><g><svg viewBox="0 0 395.52 138.94920121402404" height="138.94920121402404" width="395.52"><g><svg viewBox="0 0 395.52 138.94920121402404" height="138.94920121402404" width="395.52"><g id="textblocktransform"><svg viewBox="0 0 395.52 138.94920121402404" height="138.94920121402404" width="395.52" id="textblock"><g><svg viewBox="0 0 395.52 138.94920121402404" height="138.94920121402404" width="395.52"><path d="M394.594 29.802C392.735 15.379 387.435 11.37 387.435 11.37 371.165-3.486 350.86-0.284 332.619 1.85 300.414 1.937 268.339 5.11 236.208 6.812 168.767 7.071 100.749 2.802 33.643 13.331 27.339 16.562-6.54 13.966 1.121 31.648 3.129 39.004 10.456 47.167 10.232 53.917 11.236 55.1 12.631 52.388 13.226 54.09 15.309 58.677 18.711 56.513 21.501 59.225 17.614 66.465 20.403 72.494 23.062 78.811 18.377 80.455 12.371 79.676 9.675 85.128 9.396 89.08 7.89 88.33 6.235 88.157 5.026 88.042 2.59 88.474 2.999 89.715 4.394 93.955-1.594 96.407 2.162 100.561-0.422 105.061 3.948 108.955 3.353 113.83 3.278 114.81 3.687 115.647 4.338 115.878 7.22 117.118 3.018 119.541 3.464 122.166 33.029 140.108 65.104 127.704 95.394 135.954 103.259 130.185 97.346 138.002 100.489 136.791 102.943 135.377 104.728 141.233 107.499 137.916 107.927 136.964 107.276 134.714 108.8 135.147 109.6 135.377 110.307 135.32 110.418 133.993 110.586 132.002 109.117 133.243 108.726 132.204 112.947 126.954 111.906 139.445 115.866 138.925 115.68 137.397 114.528 135.204 116.889 135.493 119.232 133.301 119.306 131.483 121.389 136.416 121.463 137.483 121.835 138.233 122.43 138.752 128.938 133.387 135.409 140.656 142.233 138.233 146.417 135.579 150.433 139.675 154.672 138.666 156.16 137.858 157.666 136.416 159.098 138.839 176.632 139.358 195.319 137.195 211.943 138.925 256.364 135.695 303.836 140.252 350.674 135.983 361.719 134.339 373.192 132.002 383.958 130.127 383.958 130.127 392.679 124.993 392.679 101.916S394.538 81.724 394.817 63.35C395.096 44.975 396.398 44.225 394.538 29.802Z" opacity="1" fill="#6230a3" data-fill-palette-color="tertiary"></path><g transform="matrix(1,0,0,1,55.76832,26.230666666666668)"><svg width="283.98335999999995" viewBox="2 -38.1 127.38999999999999 38.800000000000004" height="86.48786788069071" data-palette-color="#ffffff"><path d="M2-35L9.7-35 19.2-35.5Q23.6-35.5 26.4-33.65 29.2-31.8 29.2-28.6L29.2-28.6Q29.2-24.15 26.8-21.35 24.4-18.55 20.9-17.1L20.9-17.1 29-4.9Q29.5-4.1 30.93-2.75 32.35-1.4 33.5-1.4L33.5-1.4 34.4-1.4 34.4 0 27 0Q27.15 0 26.05-1.5 24.95-3 24.8-3.3L24.8-3.3 16.5-16.1Q16-16 14.5-16 13-16 12.1-16.1L12.1-16.1 11.7-18.1Q12.4-18 14.7-18 17-18 19.3-18.6 21.6-19.2 23.35-20.88 25.1-22.55 25.1-25.2L25.1-25.2Q25.1-32.6 15.6-32.6L15.6-32.6 10.4-32.4 10.4-3.7Q10.4-2.95 10.5-2.55 10.6-2.15 11.15-1.78 11.7-1.4 12.8-1.4L12.8-1.4 14.7-1.4 14.7 0 2 0 2-1.4 3.6-1.4Q4.7-1.4 5.25-1.78 5.8-2.15 5.9-2.55 6-2.95 6-3.7L6-3.7 6-31.3Q6-32.45 5.53-32.98 5.05-33.5 3.6-33.5L3.6-33.5 2-33.5 2-35ZM47 0.7L47 0.7Q42.6 0.7 39.65-2.6 36.7-5.9 36.7-10.3L36.7-10.3Q36.7-15.9 40.92-19.95 45.15-24 49.85-24 54.55-24 57.42-20.68 60.3-17.35 60.3-13L60.3-13Q60.3-7.55 56.27-3.43 52.25 0.7 47 0.7ZM40.2-13Q40.2-8.35 43.02-5.28 45.85-2.2 49.37-2.2 52.9-2.2 54.9-4.85 56.9-7.5 56.9-10.3L56.9-10.3Q56.9-14.55 54.27-17.73 51.65-20.9 47.9-20.9 44.15-20.9 42.17-18.38 40.2-15.85 40.2-13L40.2-13ZM65.6-2.4L65.6-2.4 65.6-33Q65.6-33.95 64.97-34.38 64.35-34.8 62.7-34.8L62.7-34.8 62.7-36.2Q63.8-36.2 65.82-36.75 67.85-37.3 68.8-37.9L68.8-37.9 69.7-38.1 69.7-17.4Q70.7-20.3 73.05-22.15 75.4-24 78.87-24 82.35-24 84.37-21.73 86.4-19.45 86.4-15.6L86.4-15.6Q86.4-8.55 82.7-3.93 79 0.7 73.6 0.7L73.6 0.7Q71.7 0.7 69.22-0.45 66.75-1.6 65.6-2.4ZM69.7-13.4L69.7-13.4 69.7-4.5Q70.15-3.6 71.1-2.85L71.1-2.85Q72.9-1.5 74.5-1.5L74.5-1.5Q78.1-1.5 80.55-4.98 83-8.45 83-13.7L83-13.7Q83-16.7 81.22-18.65 79.45-20.6 76.72-20.6 74-20.6 71.85-17.57 69.7-14.55 69.7-13.4ZM94.62-34.8Q95.74-34.8 96.37-34.05 96.99-33.3 96.99-32.13 96.99-30.95 96.04-30.18 95.09-29.4 93.97-29.4 92.84-29.4 92.22-30.15 91.59-30.9 91.59-32.02 91.59-33.15 92.54-33.98 93.49-34.8 94.62-34.8ZM100.09-1.4L100.09 0 89.99 0 89.99-1.4 90.79-1.4Q92.14-1.4 92.52-1.85 92.89-2.3 92.89-3.3L92.89-3.3 92.89-18.3Q92.89-19.25 92.27-19.68 91.64-20.1 89.99-20.1L89.99-20.1 89.99-21.5Q90.99-21.5 93.02-22.23 95.04-22.95 96.09-23.6L96.09-23.6 96.99-23.8 96.99-3.6Q96.99-2.8 97.07-2.45 97.14-2.1 97.64-1.75 98.14-1.4 99.19-1.4L99.19-1.4 100.09-1.4ZM129.39-1.4L129.39 0 120.79 0 120.79-1.4 120.99-1.4Q121.54-1.4 121.92-1.95 122.29-2.5 122.29-3.3L122.29-3.3 122.29-16Q122.29-18.25 121.22-19.43 120.14-20.6 118.19-20.6L118.19-20.6Q115.39-20.6 113.24-17.6 111.09-14.6 111.09-13.1L111.09-13.1 111.09-3.6Q111.09-2.8 111.17-2.45 111.24-2.1 111.74-1.75 112.24-1.4 113.29-1.4L113.29-1.4 114.19-1.4 114.19 0 104.09 0 104.09-1.4 104.89-1.4Q106.24-1.4 106.62-1.85 106.99-2.3 106.99-3.3L106.99-3.3 106.99-18.3Q106.99-19.25 106.37-19.68 105.74-20.1 104.09-20.1L104.09-20.1 104.09-21.5Q105.09-21.5 107.12-22.23 109.14-22.95 110.19-23.6L110.19-23.6 111.09-23.8 111.09-17.4Q112.24-20.55 114.64-22.28 117.04-24 120.49-24L120.49-24Q122.29-24 123.54-23.2 124.79-22.4 125.34-21.15L125.34-21.15Q126.29-19 126.29-16.9L126.29-16.9 126.29-3.4Q126.29-2.7 126.39-2.35L126.39-2.35Q126.64-1.4 128.49-1.4L128.49-1.4 129.39-1.4Z" opacity="1" transform="matrix(1,0,0,1,0,0)" fill="#ffffff" class="wordmark-text-0" data-fill-palette-color="quaternary" id="text-0"></path></svg></g></svg></g></svg></g></svg></g><g></g></svg></g><defs></defs></svg><rect width="395.52" height="138.94920121402404" fill="none" stroke="none" visibility="hidden"></rect></g></svg></g></svg>